<mxfile host="app.diagrams.net" modified="2024-03-18T11:08:26.658Z" agent="Mozilla/5.0 (Macintosh; Intel Mac OS X 10_15_7) AppleWebKit/537.36 (KHTML, like Gecko) Chrome/121.0.0.0 Safari/537.36" etag="tS6T8M6K-Feyh0rbSiaG" version="24.0.3" type="github">
  <diagram id="C5RBs43oDa-KdzZeNtuy" name="Page-1">
    <mxGraphModel dx="1242" dy="786" grid="1" gridSize="10" guides="1" tooltips="1" connect="1" arrows="1" fold="1" page="1" pageScale="1" pageWidth="827" pageHeight="1169" math="0" shadow="0">
      <root>
        <mxCell id="WIyWlLk6GJQsqaUBKTNV-0" />
        <mxCell id="WIyWlLk6GJQsqaUBKTNV-1" parent="WIyWlLk6GJQsqaUBKTNV-0" />
        <mxCell id="enezpIt2n4ducNeP2M57-0" value="RESTClient" style="swimlane;fontStyle=1;align=center;verticalAlign=top;childLayout=stackLayout;horizontal=1;startSize=26;horizontalStack=0;resizeParent=1;resizeParentMax=0;resizeLast=0;collapsible=1;marginBottom=0;whiteSpace=wrap;html=1;" vertex="1" parent="WIyWlLk6GJQsqaUBKTNV-1">
          <mxGeometry x="160" y="350" width="180" height="200" as="geometry" />
        </mxCell>
        <mxCell id="enezpIt2n4ducNeP2M57-1" value="&lt;div&gt;+ base: *url.URL&lt;/div&gt;&lt;div&gt;&lt;span style=&quot;background-color: initial;&quot;&gt;+ group: string&lt;/span&gt;&lt;br&gt;&lt;/div&gt;&lt;div&gt;&lt;span style=&quot;background-color: initial;&quot;&gt;+ versionedAPIPath: string&lt;/span&gt;&lt;br&gt;&lt;/div&gt;&lt;div&gt;&lt;span style=&quot;background-color: initial;&quot;&gt;+ content: ClientContentConfig&lt;/span&gt;&lt;br&gt;&lt;/div&gt;&lt;div&gt;&lt;span style=&quot;white-space: normal;&quot;&gt;+ Client: SuperAgent&lt;/span&gt;&lt;/div&gt;" style="text;strokeColor=none;fillColor=none;align=left;verticalAlign=top;spacingLeft=4;spacingRight=4;overflow=hidden;rotatable=0;points=[[0,0.5],[1,0.5]];portConstraint=eastwest;whiteSpace=wrap;html=1;" vertex="1" parent="enezpIt2n4ducNeP2M57-0">
          <mxGeometry y="26" width="180" height="84" as="geometry" />
        </mxCell>
        <mxCell id="enezpIt2n4ducNeP2M57-2" value="" style="line;strokeWidth=1;fillColor=none;align=left;verticalAlign=middle;spacingTop=-1;spacingLeft=3;spacingRight=3;rotatable=0;labelPosition=right;points=[];portConstraint=eastwest;strokeColor=inherit;" vertex="1" parent="enezpIt2n4ducNeP2M57-0">
          <mxGeometry y="110" width="180" height="8" as="geometry" />
        </mxCell>
        <mxCell id="enezpIt2n4ducNeP2M57-3" value="+ Verb(string): bool&lt;div&gt;+ Post(): bool&lt;/div&gt;&lt;div&gt;+&amp;nbsp;Put(); bool&lt;/div&gt;&lt;div&gt;&lt;div&gt;+&amp;nbsp;Delete(): *Request&lt;/div&gt;&lt;/div&gt;&lt;div&gt;+&amp;nbsp;APIVersion: GroupVersion&lt;/div&gt;" style="text;strokeColor=none;fillColor=none;align=left;verticalAlign=top;spacingLeft=4;spacingRight=4;overflow=hidden;rotatable=0;points=[[0,0.5],[1,0.5]];portConstraint=eastwest;whiteSpace=wrap;html=1;" vertex="1" parent="enezpIt2n4ducNeP2M57-0">
          <mxGeometry y="118" width="180" height="82" as="geometry" />
        </mxCell>
        <mxCell id="enezpIt2n4ducNeP2M57-4" value="Request" style="swimlane;fontStyle=1;align=center;verticalAlign=top;childLayout=stackLayout;horizontal=1;startSize=26;horizontalStack=0;resizeParent=1;resizeParentMax=0;resizeLast=0;collapsible=1;marginBottom=0;whiteSpace=wrap;html=1;" vertex="1" parent="WIyWlLk6GJQsqaUBKTNV-1">
          <mxGeometry x="430" y="350" width="210" height="450" as="geometry" />
        </mxCell>
        <mxCell id="enezpIt2n4ducNeP2M57-5" value="&lt;div&gt;+ c: *RESTClient&lt;/div&gt;&lt;div&gt;&lt;span style=&quot;background-color: initial;&quot;&gt;+ timeout: time.Duration&lt;/span&gt;&lt;br&gt;&lt;/div&gt;&lt;div&gt;&lt;span style=&quot;background-color: initial;&quot;&gt;+ verb: string&lt;/span&gt;&lt;br&gt;&lt;/div&gt;&lt;div&gt;&lt;span style=&quot;white-space: normal;&quot;&gt;+ pathPrefix: string&lt;/span&gt;&lt;/div&gt;&lt;div&gt;&lt;span style=&quot;white-space: normal;&quot;&gt;+ subpath: string&lt;/span&gt;&lt;/div&gt;&lt;div&gt;&lt;span style=&quot;white-space: normal;&quot;&gt;+ params: url.Values&lt;/span&gt;&lt;/div&gt;&lt;div&gt;&lt;span style=&quot;white-space: normal;&quot;&gt;+ headers: http.Header&lt;/span&gt;&lt;/div&gt;&lt;div&gt;&lt;span style=&quot;background-color: initial;&quot;&gt;+ resource: string&lt;/span&gt;&lt;br&gt;&lt;/div&gt;&lt;div&gt;&lt;span style=&quot;white-space: normal;&quot;&gt;+ resourceName: string&lt;/span&gt;&lt;/div&gt;&lt;div&gt;&lt;span style=&quot;white-space: normal;&quot;&gt;+ subresource: string&lt;/span&gt;&lt;/div&gt;&lt;div&gt;&lt;span style=&quot;background-color: initial;&quot;&gt;+ err: error&lt;/span&gt;&lt;br&gt;&lt;/div&gt;&lt;div&gt;&lt;span style=&quot;white-space: normal;&quot;&gt;+ body: interface{}&lt;/span&gt;&lt;/div&gt;" style="text;strokeColor=none;fillColor=none;align=left;verticalAlign=top;spacingLeft=4;spacingRight=4;overflow=hidden;rotatable=0;points=[[0,0.5],[1,0.5]];portConstraint=eastwest;whiteSpace=wrap;html=1;" vertex="1" parent="enezpIt2n4ducNeP2M57-4">
          <mxGeometry y="26" width="210" height="184" as="geometry" />
        </mxCell>
        <mxCell id="enezpIt2n4ducNeP2M57-6" value="" style="line;strokeWidth=1;fillColor=none;align=left;verticalAlign=middle;spacingTop=-1;spacingLeft=3;spacingRight=3;rotatable=0;labelPosition=right;points=[];portConstraint=eastwest;strokeColor=inherit;" vertex="1" parent="enezpIt2n4ducNeP2M57-4">
          <mxGeometry y="210" width="210" height="8" as="geometry" />
        </mxCell>
        <mxCell id="enezpIt2n4ducNeP2M57-7" value="+ Verb(string): *Request&lt;div&gt;+ Prefix(&lt;span style=&quot;background-color: initial;&quot;&gt;string&lt;/span&gt;&lt;span style=&quot;background-color: initial;&quot;&gt;):&amp;nbsp;&lt;/span&gt;&lt;span style=&quot;background-color: initial;&quot;&gt;*Request&lt;/span&gt;&lt;/div&gt;&lt;div&gt;+ Suffix(string); *Request&lt;/div&gt;&lt;div&gt;&lt;div&gt;+ Resource(string): *Request&lt;/div&gt;&lt;/div&gt;&lt;div&gt;+&amp;nbsp;SubResource(string): *Request&amp;nbsp;&lt;/div&gt;&lt;div&gt;+&amp;nbsp;Name(string): *Request&lt;/div&gt;&lt;div&gt;+&amp;nbsp;AbsPath(string): *Request&lt;/div&gt;&lt;div&gt;+&amp;nbsp;RequestURI(string): *Request&lt;/div&gt;&lt;div&gt;+&amp;nbsp;Param(string,string): *Request&lt;/div&gt;&lt;div&gt;- setParam(string,string): *Request&lt;/div&gt;&lt;div&gt;-&amp;nbsp;SetHeader(string,string): *Request&lt;/div&gt;&lt;div&gt;+&amp;nbsp;Timeout(time.Duration): *Request&lt;/div&gt;&lt;div&gt;+ URL(): *url.URL&lt;/div&gt;&lt;div&gt;+ Body(interface{}): *Request&lt;/div&gt;&lt;div&gt;+ Do(context.Context): Resut&lt;/div&gt;&lt;div&gt;&lt;br&gt;&lt;/div&gt;" style="text;strokeColor=none;fillColor=none;align=left;verticalAlign=top;spacingLeft=4;spacingRight=4;overflow=hidden;rotatable=0;points=[[0,0.5],[1,0.5]];portConstraint=eastwest;whiteSpace=wrap;html=1;" vertex="1" parent="enezpIt2n4ducNeP2M57-4">
          <mxGeometry y="218" width="210" height="232" as="geometry" />
        </mxCell>
        <mxCell id="enezpIt2n4ducNeP2M57-8" value="" style="endArrow=open;endFill=1;endSize=12;html=1;rounded=0;exitX=-0.005;exitY=0.641;exitDx=0;exitDy=0;exitPerimeter=0;entryX=1.011;entryY=0.305;entryDx=0;entryDy=0;entryPerimeter=0;" edge="1" parent="WIyWlLk6GJQsqaUBKTNV-1" source="enezpIt2n4ducNeP2M57-5" target="enezpIt2n4ducNeP2M57-3">
          <mxGeometry width="160" relative="1" as="geometry">
            <mxPoint x="330" y="560" as="sourcePoint" />
            <mxPoint x="490" y="560" as="targetPoint" />
          </mxGeometry>
        </mxCell>
        <mxCell id="enezpIt2n4ducNeP2M57-9" value="Result" style="swimlane;fontStyle=1;align=center;verticalAlign=top;childLayout=stackLayout;horizontal=1;startSize=26;horizontalStack=0;resizeParent=1;resizeParentMax=0;resizeLast=0;collapsible=1;marginBottom=0;whiteSpace=wrap;html=1;" vertex="1" parent="WIyWlLk6GJQsqaUBKTNV-1">
          <mxGeometry x="160" y="600" width="190" height="150" as="geometry" />
        </mxCell>
        <mxCell id="enezpIt2n4ducNeP2M57-10" value="&lt;div&gt;- response: *gorequest.Response&lt;/div&gt;&lt;div&gt;&lt;span style=&quot;white-space: normal;&quot;&gt;- err: error&lt;/span&gt;&lt;/div&gt;&lt;div&gt;&lt;span style=&quot;background-color: initial;&quot;&gt;- body: []byte&lt;/span&gt;&lt;/div&gt;&lt;div&gt;&lt;span style=&quot;white-space: normal;&quot;&gt;- decoder: runtime.Decoder&lt;/span&gt;&lt;/div&gt;" style="text;strokeColor=none;fillColor=none;align=left;verticalAlign=top;spacingLeft=4;spacingRight=4;overflow=hidden;rotatable=0;points=[[0,0.5],[1,0.5]];portConstraint=eastwest;whiteSpace=wrap;html=1;" vertex="1" parent="enezpIt2n4ducNeP2M57-9">
          <mxGeometry y="26" width="190" height="64" as="geometry" />
        </mxCell>
        <mxCell id="enezpIt2n4ducNeP2M57-11" value="" style="line;strokeWidth=1;fillColor=none;align=left;verticalAlign=middle;spacingTop=-1;spacingLeft=3;spacingRight=3;rotatable=0;labelPosition=right;points=[];portConstraint=eastwest;strokeColor=inherit;" vertex="1" parent="enezpIt2n4ducNeP2M57-9">
          <mxGeometry y="90" width="190" height="8" as="geometry" />
        </mxCell>
        <mxCell id="enezpIt2n4ducNeP2M57-12" value="+ Raw(): []byte,error&lt;div&gt;+ Into(interface{}): error&lt;/div&gt;&lt;div&gt;+&amp;nbsp;Error(): error&lt;/div&gt;&lt;div&gt;&lt;div&gt;&lt;br&gt;&lt;/div&gt;&lt;/div&gt;" style="text;strokeColor=none;fillColor=none;align=left;verticalAlign=top;spacingLeft=4;spacingRight=4;overflow=hidden;rotatable=0;points=[[0,0.5],[1,0.5]];portConstraint=eastwest;whiteSpace=wrap;html=1;" vertex="1" parent="enezpIt2n4ducNeP2M57-9">
          <mxGeometry y="98" width="190" height="52" as="geometry" />
        </mxCell>
        <mxCell id="enezpIt2n4ducNeP2M57-13" value="" style="endArrow=open;endSize=12;dashed=1;html=1;rounded=0;exitX=-0.024;exitY=0.435;exitDx=0;exitDy=0;exitPerimeter=0;entryX=1.011;entryY=0.656;entryDx=0;entryDy=0;entryPerimeter=0;" edge="1" parent="WIyWlLk6GJQsqaUBKTNV-1" source="enezpIt2n4ducNeP2M57-7" target="enezpIt2n4ducNeP2M57-10">
          <mxGeometry width="160" relative="1" as="geometry">
            <mxPoint x="330" y="560" as="sourcePoint" />
            <mxPoint x="490" y="560" as="targetPoint" />
          </mxGeometry>
        </mxCell>
      </root>
    </mxGraphModel>
  </diagram>
</mxfile>
